<?xml version="1.0" encoding="UTF-8" standalone="no"?>
<!DOCTYPE svg PUBLIC "-//W3C//DTD SVG 1.1//EN" "http://www.w3.org/Graphics/SVG/1.1/DTD/svg11.dtd">
<!-- Created with Vectornator (http://vectornator.io/) -->
<svg height="100%" stroke-miterlimit="10" style="fill-rule:nonzero;clip-rule:evenodd;stroke-linecap:round;stroke-linejoin:round;" version="1.1" viewBox="0 0 73.7 73.7" width="100%" xml:space="preserve" xmlns="http://www.w3.org/2000/svg" xmlns:xlink="http://www.w3.org/1999/xlink">
<defs>
<filter color-interpolation-filters="sRGB" filterUnits="userSpaceOnUse" height="86.9394" id="Filter" width="86.939" x="-6.61952" y="4.26056">
<feDropShadow dx="-1.8366e-05" dy="5" flood-color="#000000" flood-opacity="0.2" in="SourceGraphic" result="Shadow" stdDeviation="5"/>
</filter>
</defs>
<clipPath id="ArtboardFrame">
<rect height="73.7" width="73.7" x="0" y="0"/>
</clipPath>
<g clip-path="url(#ArtboardFrame)" id="Sans-titre">
<path d="M0-0.001L73.702-0.001L73.702-0.001L73.702 73.7L73.702 73.7L0 73.7L0 73.7L0-0.001L0-0.001Z" fill="#dde1e5" fill-rule="nonzero" opacity="1" stroke="none"/>
<g filter="url(#Filter)">
<g opacity="1">
<path d="M43.2295 13.348C43.1715 13.319 43.1145 13.286 43.0575 13.256L43.2135 13.428L43.2295 13.348Z" fill="#ffffff" fill-rule="nonzero" opacity="1" stroke="none"/>
<path d="M42.2585 12.894C42.0705 12.815 41.8845 12.742 41.7005 12.675C41.9515 12.775 42.1635 12.874 42.2765 12.959L42.2585 12.894Z" fill="#ffffff" fill-rule="nonzero" opacity="1" stroke="none"/>
<path d="M35.3205 64.942L37.0785 65.118L38.8375 64.942C41.5405 64.762 44.0085 62.322 45.7765 59.983C46.2765 59.321 46.7225 58.669 47.0995 58.077C47.0995 58.079 47.1005 57.737 47.1005 57.738C46.6045 57.117 46.6335 53.429 46.6945 51.314C47.8315 49.62 48.5065 48.243 48.5065 48.243C48.7645 47.471 49.1165 44.858 49.4595 41.857C51.0675 43.629 52.0235 41.561 52.0235 41.561C53.7815 40.331 53.4295 33.649 53.4295 33.649C52.9435 32.35 52.3895 31.901 51.8575 31.901C51.8515 31.901 51.8475 31.904 51.8415 31.904C51.6115 32.843 51.3165 33.829 50.9485 34.645L49.4255 36.873C49.4255 36.873 49.5425 32.302 49.1915 30.309C49.1915 30.309 48.6055 28.317 48.0195 27.144C48.0195 27.144 46.8465 24.565 46.9625 22.806C46.9625 22.806 46.3765 23.51 44.1505 24.214L44.0335 23.276C44.0335 23.276 42.0405 23.862 40.9855 24.8L41.2205 23.51C41.2205 23.51 40.3995 24.917 37.1175 25.619C37.1175 25.619 32.7805 25.737 31.1385 26.206L32.1935 25.033L29.2635 25.619L30.3185 24.681C30.3185 24.681 28.3255 25.151 27.5055 25.97C27.5055 25.97 25.7475 26.908 25.1615 28.783L24.4575 31.479L23.9895 30.425C23.9895 30.425 24.2995 34.995 24.6505 36.637C24.6505 36.637 24.1065 37.575 24.3405 38.044L22.6985 36.051C22.6985 36.051 21.9075 34.074 21.3645 32.443C21.1435 32.718 20.9285 33.105 20.7245 33.648C20.7245 33.648 20.3725 40.33 22.1325 41.56C22.1325 41.56 23.0885 43.628 24.6965 41.856C25.0395 44.857 25.3915 47.469 25.6485 48.242C25.6485 48.242 26.3255 49.62 27.4625 51.313C28.2635 53.612 27.5515 57.116 27.0555 57.737C27.4315 58.329 27.8805 59.32 28.3805 59.982C30.1495 62.322 32.6185 64.762 35.3205 64.942Z" fill="#ffffff" fill-rule="nonzero" opacity="1" stroke="none"/>
<path d="M42.0415 12.139L42.2585 12.894C42.5225 13.003 42.7885 13.122 43.0585 13.256L42.0415 12.139Z" fill="#bac2cc" fill-rule="nonzero" opacity="1" stroke="none"/>
<path d="M51.6535 20.11C50.9505 18.821 48.8415 17.179 48.8415 17.179L49.3105 16.71C48.9585 16.71 47.7855 16.124 47.7855 16.124C47.0835 15.421 44.6215 13.31 44.6215 13.31L43.9185 13.663L43.3325 12.843L43.2295 13.348L43.2135 13.428L43.0585 13.256C42.7885 13.121 42.5225 13.003 42.2585 12.894L42.2775 12.959C42.1645 12.874 41.9525 12.774 41.7015 12.675C40.9105 12.358 39.6985 12.021 39.6985 12.021C37.2365 11.435 31.9615 12.021 31.9615 12.021C30.6715 12.373 27.7425 13.428 27.7425 13.428C27.0395 13.428 25.6315 14.131 25.6315 14.131L26.9205 14.015C26.2165 14.366 24.2245 15.656 24.2245 15.656C22.9345 16.476 21.8795 19.173 21.8795 19.173C21.4115 20.346 20.2385 23.744 20.2385 23.744L20.8245 23.51C20.1215 25.738 20.3545 30.073 20.3545 30.073L20.5885 28.551L20.9405 31.012C21.0285 31.394 21.1835 31.9 21.3645 32.445C21.9085 34.077 22.6985 36.053 22.6985 36.053L24.3405 38.046C24.1065 37.576 24.6505 36.639 24.6505 36.639C24.2985 34.997 23.9895 30.427 23.9895 30.427L24.4575 31.481L25.1615 28.785C25.7475 26.909 27.5055 25.972 27.5055 25.972C28.3265 25.153 30.3185 24.683 30.3185 24.683L29.2635 25.621L32.1935 25.035L31.1385 26.208C32.7805 25.739 37.1175 25.621 37.1175 25.621C40.3995 24.919 41.2205 23.512 41.2205 23.512L40.9855 24.802C42.0405 23.864 44.0335 23.278 44.0335 23.278L44.1505 24.216C46.3775 23.512 46.9625 22.808 46.9625 22.808C46.8465 24.567 48.0195 27.146 48.0195 27.146C48.6055 28.319 49.1915 30.311 49.1915 30.311C49.5435 32.304 49.4255 36.875 49.4255 36.875L50.9485 34.647C51.3155 33.831 51.6105 32.845 51.8415 31.906C52.2735 30.147 52.4735 28.552 52.4735 28.552C52.3555 27.145 52.0035 24.683 52.0035 24.683L52.5895 25.387C52.7085 23.275 51.6535 20.11 51.6535 20.11Z" fill="#bac2cc" fill-rule="nonzero" opacity="1" stroke="none"/>
</g>
<path d="M64.6185 64.63C63.2165 63.038 54.8395 60.195 54.8395 60.195C52.2025 59.492 46.8965 57.484 46.8965 57.484C46.5205 58.076 46.0715 59.068 45.5725 59.729C43.8035 62.068 41.3355 64.509 38.6335 64.688L36.4715 64.829L35.0685 64.688C32.3655 64.509 29.8975 62.068 28.1295 59.729C27.6295 59.068 27.1805 58.076 26.8045 57.484C26.8045 57.484 21.4985 59.492 18.8605 60.195C18.8605 60.195 10.4835 63.038 9.0815 64.63C9.0815 64.63 6.0565 69.305 5.8805 73.7L35.7725 73.7L35.9245 73.7L36.8275 73.7L37.9305 73.7L67.8195 73.7C67.6445 69.305 64.6185 64.63 64.6185 64.63Z" fill="#bac2cc" fill-rule="nonzero" opacity="1" stroke="none"/>
</g>
</g>
</svg>
