<?xml version="1.0" encoding="UTF-8" standalone="no"?>
<!DOCTYPE svg PUBLIC "-//W3C//DTD SVG 1.1//EN" "http://www.w3.org/Graphics/SVG/1.1/DTD/svg11.dtd">
<!-- Created with Vectornator (http://vectornator.io/) -->
<svg height="100%" stroke-miterlimit="10" style="fill-rule:nonzero;clip-rule:evenodd;stroke-linecap:round;stroke-linejoin:round;" version="1.1" viewBox="0 0 73.7 73.7" width="100%" xml:space="preserve" xmlns="http://www.w3.org/2000/svg" xmlns:xlink="http://www.w3.org/1999/xlink">
<defs>
<filter color-interpolation-filters="sRGB" filterUnits="userSpaceOnUse" height="87.5474" id="Filter" width="74.3991" x="-0.348518" y="3.65255">
<feDropShadow dx="-1.8366e-05" dy="5" flood-color="#000000" flood-opacity="0.2" in="SourceGraphic" result="Shadow" stdDeviation="5"/>
</filter>
</defs>
<path d="M0 0L73.7 0L73.7 73.7L0 73.7L0 0Z" fill="#ffffff" fill-rule="nonzero" opacity="1" stroke="none"/>
<clipPath id="ArtboardFrame">
<rect height="73.7" width="73.7" x="0" y="0"/>
</clipPath>
<g clip-path="url(#ArtboardFrame)" id="Sans-titre">
<path d="M0 0L73.702 0L73.702 0L73.702 73.701L73.702 73.701L0 73.701L0 73.701L0 0L0 0Z" fill="#dde1e5" fill-rule="nonzero" opacity="1" stroke="none"/>
<g filter="url(#Filter)">
<g opacity="1">
<path d="M49.2815 62.389C49.2855 62.389 49.2895 62.389 49.2935 62.391C47.2795 61.812 45.8525 61.313 45.8525 61.313C41.7835 59.8 41.8685 54.463 42.2845 51.399C43.9505 50.088 44.7025 48.753 44.7025 48.753C46.0075 47.364 47.1495 43.844 48.0485 40.111C48.6635 41.325 49.8365 39.644 49.8365 39.644C51.8275 38.113 52.3255 31.838 52.3255 31.838C52.1125 31.519 51.8605 31.385 51.5885 31.385C51.0325 31.385 50.3915 31.943 49.8175 32.624C49.5645 33.45 49.2835 34.52 49.0425 35.492C48.6935 36.883 48.4245 38.071 48.4245 38.071L48.9455 33.791L48.9775 33.536C49.3085 31.654 45.9905 29.551 45.9905 29.551L46.9865 32.208L44.1075 29.885L45.2155 31.875C35.8075 28.114 30.2755 19.37 30.2755 19.37C30.9565 26.178 26.7685 30.075 25.7415 30.924C27.2335 29.622 28.5275 25.755 29.0915 23.864C28.1845 26.181 25.7215 28.786 25.0355 29.482C24.9825 30.286 25.1245 32.65 25.2465 34.444C25.3315 35.673 25.4075 36.632 25.4075 36.632L25.4025 36.614L24.4765 33.279C23.7945 32.343 22.9175 31.384 22.1905 31.383C21.9175 31.383 21.6675 31.517 21.4535 31.836C21.4535 31.836 21.9505 38.11 23.9425 39.642C23.9425 39.642 25.4385 41.784 25.9345 39.488C25.9345 39.488 25.9445 39.375 25.9515 39.17C26.8855 43.239 28.1065 47.248 29.5215 48.751C29.5215 48.751 30.1205 49.813 31.4345 50.978C31.8945 53.944 32.1915 59.728 27.9265 61.311C27.9265 61.311 26.9035 61.667 25.3705 62.127L25.3145 62.399C32.7745 68.219 45.3145 63.967 49.2815 62.389ZM25.5165 31.102C25.5525 31.079 25.5885 31.045 25.6255 31.02C25.5885 31.046 25.5525 31.079 25.5165 31.102Z" fill="#ffffff" fill-rule="nonzero" opacity="1" stroke="none"/>
<path d="M25.5165 31.102C25.5525 31.079 25.5885 31.045 25.6255 31.02" fill="none" opacity="1" stroke="#47bdff" stroke-linecap="round" stroke-linejoin="round" stroke-width="0"/>
<path d="M61.0765 66.773C61.2925 66.944 60.9335 66.602 61.0765 66.773L61.0765 66.773Z" fill="#47bdff" fill-rule="nonzero" opacity="1" stroke="none"/>
</g>
<path d="M61.0765 66.773L61.0765 66.773C59.5855 65.6 56.5495 64.489 54.6035 63.853L54.6035 63.851C54.5825 63.845 54.5615 63.837 54.5395 63.831C54.4345 63.797 54.3325 63.763 54.2365 63.73C54.2165 63.726 54.1975 63.72 54.1785 63.714C54.0835 63.685 53.9905 63.654 53.9005 63.626C53.8845 63.623 53.8695 63.617 53.8515 63.61C53.7555 63.581 53.6645 63.555 53.5815 63.528L53.5775 63.528C53.2075 63.415 52.9535 63.34 52.8625 63.313C52.8595 63.313 52.8565 63.312 52.8555 63.312C52.3615 62.106 50.6385 57.796 50.3355 55.666C50.3355 55.666 51.9255 57.656 52.4575 58.156C52.4575 58.156 50.1585 52.678 50.5125 47.532C50.5125 47.532 51.0425 41.888 51.5735 39.732C51.5735 39.732 54.5775 24.959 50.8665 18.819L52.1045 19.812C52.1045 19.812 47.1555 13.505 43.4425 12.344C43.4425 12.344 34.6055 9.357 32.6625 12.842C32.6625 12.842 19.2305 14.002 20.2925 26.783C20.2925 26.783 20.9985 38.403 22.4125 42.054C22.4125 42.054 24.5345 49.855 24.3575 55.168L25.5925 52.014C25.5925 52.014 25.5925 57.656 24.5345 59.815L26.1235 58.488L25.3675 62.13C26.9005 61.67 27.9235 61.314 27.9235 61.314C32.1885 59.731 31.8915 53.947 31.4315 50.981C30.1175 49.816 29.5185 48.754 29.5185 48.754C28.1035 47.251 26.8825 43.242 25.9485 39.173C25.9415 39.378 25.9315 39.491 25.9315 39.491C25.4355 41.787 23.9395 39.645 23.9395 39.645C21.9475 38.114 21.4505 31.839 21.4505 31.839C21.6645 31.52 21.9145 31.386 22.1875 31.386C22.9145 31.387 23.7915 32.346 24.4735 33.282L25.3995 36.617L25.4045 36.635C25.4045 36.635 25.3285 35.675 25.2435 34.447C25.1215 32.653 24.9795 30.289 25.0325 29.485C25.7195 28.789 28.1815 26.184 29.0885 23.867C28.5255 25.758 27.2315 29.625 25.7385 30.927C26.7645 30.078 30.9525 26.181 30.2725 19.373C30.2725 19.373 35.8045 28.117 45.2125 31.878L44.1045 29.888L46.9835 32.211L45.9875 29.554C45.9875 29.554 49.3055 31.658 48.9745 33.539L48.9425 33.794L48.4215 38.074C48.4215 38.074 48.6915 36.886 49.0395 35.495C49.2805 34.522 49.5615 33.453 49.8145 32.627C50.3885 31.945 51.0305 31.388 51.5855 31.388C51.8575 31.388 52.1095 31.522 52.3225 31.841C52.3225 31.841 51.8245 38.115 49.8335 39.647C49.8335 39.647 48.6605 41.328 48.0455 40.114C47.1475 43.846 46.0045 47.367 44.6995 48.756C44.6995 48.756 43.9475 50.091 42.2815 51.402C41.8655 54.466 41.7805 59.803 45.8495 61.316C45.8495 61.316 47.2775 61.815 49.2905 62.394C49.2865 62.392 49.2825 62.392 49.2785 62.392C45.3115 63.969 32.7725 68.221 25.3095 62.405L25.3655 62.133C25.1585 62.195 24.9415 62.261 24.7155 62.327C24.6995 62.33 24.6855 62.334 24.6685 62.339C24.4385 62.404 24.2005 62.475 23.9535 62.543C23.9055 62.556 23.8555 62.568 23.8055 62.582C23.7315 62.604 23.6575 62.627 23.5795 62.646C23.4535 62.682 23.3245 62.715 23.1945 62.75C23.1495 62.761 23.1055 62.774 23.0615 62.785C22.9105 62.826 22.7575 62.864 22.6025 62.905C22.5995 62.906 22.5925 62.908 22.5885 62.908C22.4185 62.952 22.2485 62.995 22.0745 63.039C22.0665 63.04 22.0555 63.043 22.0485 63.045C21.8765 63.086 21.6995 63.129 21.5275 63.173C21.5115 63.176 21.4965 63.18 21.4795 63.184C21.3025 63.225 21.1265 63.265 20.9485 63.306C20.9485 63.306 13.8595 65.285 12.1715 67.27C12.1655 67.277 12.1575 67.284 12.1515 67.29L12.1935 67.29C12.2515 67.342 12.3135 67.389 12.3715 67.439C12.1935 67.29 12.1525 67.902 12.1525 68.173L12.1525 72.352C12.1525 73.096 12.7565 73.7 13.5005 73.7L37.6405 73.7L60.2025 73.7C60.9465 73.7 61.5505 73.096 61.5505 72.352L61.5505 68.173C61.5525 67.659 61.4965 67.002 61.0765 66.773Z" fill="#bac2cc" fill-rule="nonzero" opacity="1" stroke="none"/>
</g>
</g>
</svg>
